# xmcd
#
# Track frame offsets: 
#        150
#        15090
#        32727
#        46625
#        59370
#        76855
#        91087
#        104235
#        121115
#        139710
#
# Disc length: 2066 seconds
#
# Revision: 0
# Processed by: cddbd v1.5.2PL0 Copyright (c) Steve Scherf et al.
# Submitted via: ExactAudioCopy v1.0b3
#
DISCID=6d08100a
DTITLE=Tim Malchak - Different Circles
DYEAR=1989
DGENRE=Country
TTITLE0=Not Like This
TTITLE1=If You Had A Heart
TTITLE2=Different Circles
TTITLE3=I Always Leave My Heart At Home
TTITLE4=I've Been There
TTITLE5=That's No Way To Love
TTITLE6=I Owe It All To You
TTITLE7=On A Good Night
TTITLE8=Sweet Virginia
TTITLE9=American Man
EXTD=
EXTT0=
EXTT1=
EXTT2=
EXTT3=
EXTT4=
EXTT5=
EXTT6=
EXTT7=
EXTT8=
EXTT9=
PLAYORDER=
